<svg version="1" xmlns="http://www.w3.org/2000/svg" width="934.667" height="934.667" viewBox="0 0 701.000000 701.000000"><path d="M141.6 80.9c-.2.3-2 6.9-4 14.6-2 7.7-8.2 31.1-13.6 52-19.3 73.3-23.1 88-23.5 89.5-.1.8-1.1 4.4-2 8-.9 3.6-1.9 7.4-2.1 8.4-.2 1-.8 3.3-1.3 5-.6 1.7-2.8 10.1-5 18.6-2.2 8.5-6.7 25.6-9.9 38-3.3 12.4-6.3 24.1-6.8 26-.4 1.9-.9 3.9-1 4.5-.2.5-.7 2.6-1.3 4.5-3.9 14.5-5.3 19.7-5.6 21-.1.8-.8 3.5-1.5 6s-1.4 5.2-1.5 6c-.2.8-3.1 11.7-6.4 24.3-3.3 12.5-6.3 23.7-6.6 25-.2 1.2-1.6 6.5-3 11.7-1.4 5.2-2.7 10.3-3 11.3-.9 3.9-21.8 83.8-24.2 92.7-1.4 5.2-2.6 9.9-2.7 10.5-.6 2.6-2.7 10.3-3.6 13-.5 1.6-1.1 4.1-1.4 5.5-.5 2.8-.4 2.4-4.2 16.5C6 599 4.7 604.2 4.5 605c-.2.8-1.2 4.8-2.3 8.7L.4 621h112.5l1.4-5.3c1.7-5.8 9.7-36.4 10.2-38.7.4-1.7 9-34.7 10.5-40 .5-1.9 2.8-10.5 5-19 8-31 20-76.8 27-103.5 3.6-13.6 5.9-22.7 6.5-25.2.3-1 1.8-7 3.5-13.3 1.7-6.3 3.2-12.2 3.4-13 .3-.8 1.6-6 3.1-11.5 1.4-5.5 2.8-10.7 3-11.5.2-.8 2.2-8.7 4.5-17.5s4.4-16.7 4.5-17.5c.3-1.4 7.8-29.9 16.6-63 2.2-8.4 4.3-16.3 4.5-17.3.2-1.1 1.1-4.5 2-7.6.9-3.1 1.8-6.6 2-7.8.2-1.2.8-3.3 1.4-4.7.5-1.3.7-2.6.5-2.7-.2-.2 19.2-.4 43.1-.4 23.9 0 43.4 0 43.4.1 0 .2-12 46.9-16 61.9-2.3 8.8-4.4 16.8-4.6 17.9-.2 1-1 4.2-1.8 7s-3.3 12.1-5.5 20.6c-7.1 27.3-10.2 39.3-12.1 46.3l-1.9 6.7 80.6-.2 80.6-.3 3.9-14.5c2.1-8 5.6-21.3 7.7-29.5 7-27 12.3-47 12.7-48.5.2-.8 1.5-5.8 2.8-11 1.4-5.2 5-19.2 8.1-31 5.2-19.5 6.2-23.4 6.4-25 .1-.4 83.8-.5 86.4-.1.5 0 .6.4.3.9-.2.4-2.5 8.8-5.1 18.7-2.5 9.9-5.8 22.3-7.2 27.5-1.3 5.2-2.6 10.4-2.9 11.4-.2 1-.8 3.3-1.3 5-.6 1.7-3.1 11.2-5.6 21.1-4.6 17.8-7 27.1-12.1 46.2-3.3 12.7-10.6 40.5-10.9 41.8-.4 1.9-1.8 7.1-4.7 18-1.6 6-3.1 11.7-3.3 12.5-.2.8-1.3 5.3-2.5 10s-2.3 9.2-2.5 10c-.2.8-1.8 6.7-3.5 13-1.8 6.3-3.3 12.2-3.5 13-.2.8-.8 3.5-1.5 6s-1.4 5.4-1.6 6.6c-.2 1.2-1 4-1.9 6.3-.8 2.3-1.4 4.2-1.4 4.4.1.5-1.6 7.2-9.3 36.7-4.4 16.8-8.1 31.3-8.4 32.2-.2 1-.6 2.7-.9 3.8-.3 1.1-.7 2.9-1 4-.3 1.1-.7 2.8-.9 3.7-.2 1-2.1 7.7-4.1 15-2 7.2-3.8 14-4 15-.2 1-2.3 9.6-4.8 19l-4.6 17.3h56.4c52.8 0 56.4-.1 56.9-1.8.6-1.9 37.6-143.8 38.1-146.2.2-.8 1.1-4.2 2-7.5 3.3-12.5 8.7-32.8 9-34.4.9-3.6 9.1-34.8 23.5-89.6 7.1-27 16.1-61.7 16.5-63.9.3-1 .9-3.3 1.4-5 .6-1.7 2.8-10.3 5.1-19 2.2-8.7 5-19.3 6.1-23.5 1.2-4.2 2.2-8.4 2.4-9.3.2-1 1.5-5.9 2.9-11 3.4-12.6 10.7-40.9 11.1-42.9.2-.9.8-3.4 1.5-5.5.6-2.2 3.1-11.8 5.6-21.4 2.5-9.6 6.1-23.4 8-30.5 1.9-7.2 3.7-13.8 3.9-14.8.2-.9 1.1-4.4 1.9-7.8.9-3.3 1.6-6.2 1.6-6.3 0-.6-559.1-.2-559.4.3z"/><path d="M246.8 445.8c-1.4.3-3.7 8.5-20.4 72.2-1.7 6.9-5.1 19.7-7.4 28.5-9.5 36.4-11.2 43.1-11.6 44.8-.2.9-.6 2.5-.9 3.5-5.1 19.1-6.5 24.8-6.5 25.4 0 .4 36.2.8 80.5.8 63.7 0 80.5-.3 80.6-1.3 0-.6.2-1.9.4-2.7.3-.8 1.1-4 1.9-7 .8-3 2.8-10.9 4.6-17.5 1.8-6.6 3.3-12.7 3.5-13.5.3-1.5 6.2-23.9 14.7-56 2.2-8.5 5.3-20.2 6.8-26 1.5-5.8 4.9-18.5 7.4-28.2 2.6-9.7 4.8-18.9 4.9-20.4l.2-2.7-78.6-.1c-43.2-.1-79.2 0-80.1.2z"/></svg>